<svg version="1.1" id="Layer_1" xmlns="http://www.w3.org/2000/svg" xmlns:xlink="http://www.w3.org/1999/xlink" x="0px" y="0px" width="100%" viewBox="0 0 128 128" enable-background="new 0 0 128 128" xml:space="preserve">

<path fill="#010101" opacity="1.000000" stroke="none" d="
M129.000000,82.000000 
	C129.000000,97.635735 129.000000,113.271461 129.000000,128.953598 
	C86.448555,128.953598 43.897041,128.953598 1.000000,128.953598 
	C1.000000,113.647499 1.000000,98.292412 1.214099,82.100441 
	C2.593874,81.928085 3.759548,82.592606 4.988950,83.479630 
	C5.272140,83.952347 5.548107,84.069916 5.995734,84.280029 
	C6.405926,84.628922 6.700963,84.752632 7.262556,85.071320 
	C8.334546,85.563026 9.139979,85.859779 10.005910,86.367783 
	C10.214895,86.858788 10.445019,87.026596 10.819721,87.440941 
	C12.230247,90.283241 13.577829,92.767052 14.993382,95.580185 
	C19.027473,99.632835 22.993595,103.356148 26.979046,107.049828 
	C26.998375,107.020195 26.928837,107.033287 26.960430,107.334961 
	C27.372553,107.739204 27.753078,107.841774 28.448467,108.119957 
	C33.731266,109.507103 38.669674,111.594780 43.672756,111.763397 
	C57.816647,112.240097 72.015144,112.449738 86.133797,111.686172 
	C92.168564,111.359802 98.058655,108.358345 104.369431,106.432648 
	C104.849724,105.882294 104.975075,105.471718 105.087578,105.112175 
	C105.074730,105.163208 105.175842,105.192436 105.516800,105.316528 
	C112.580276,100.907028 116.815285,94.520218 119.728882,86.732025 
	C120.000481,85.995888 120.115356,85.559906 120.440460,85.132843 
	C120.650688,85.141762 121.027077,84.953484 121.406357,85.015244 
	C124.190422,84.051346 126.595215,83.025673 129.000000,82.000000 
z" data-index="1" style="opacity: 1; visibility: hidden; fill: rgb(121, 40, 202);"></path>
<path fill="#E404BB" opacity="1.000000" stroke="none" d="
M129.000000,81.531342 
	C126.595215,83.025673 124.190422,84.051346 121.427780,84.597672 
	C121.049072,72.758827 121.028214,61.399334 121.007355,50.039841 
	C123.503082,50.939064 125.998810,51.838287 128.747269,52.368755 
	C129.000000,61.687561 129.000000,71.375122 129.000000,81.531342 
z" data-index="2" style="opacity: 1; fill: rgb(228, 4, 187); stroke: rgb(228, 4, 187);"></path>
<path fill="#F60ADB" opacity="1.000000" stroke="none" d="
M4.925223,83.257126 
	C3.759548,82.592606 2.593874,81.928085 1.214099,81.631783 
	C1.000000,72.979103 1.000000,63.958210 1.000001,54.468658 
	C1.761696,53.289989 2.523390,52.579979 3.629891,52.241188 
	C3.979717,54.741871 3.984735,56.871326 3.989670,59.373501 
	C3.984337,60.491619 3.979089,61.237026 3.599233,62.086670 
	C1.721108,65.279930 0.493113,68.345657 3.982167,71.343529 
	C3.999256,72.113159 4.004550,72.552940 4.001684,73.425865 
	C4.304092,76.991714 4.614658,80.124420 4.925223,83.257126 
z" data-index="3" style="fill: rgb(246, 10, 219); stroke: rgb(246, 10, 219);"></path>
<path fill="#EAEDF0" opacity="1.000000" stroke="none" d="
M32.994915,24.040600 
	C37.357468,22.729227 41.720020,21.417854 46.668121,20.480663 
	C53.707020,25.863810 60.888206,27.108356 69.148987,25.074749 
	C73.034874,24.153992 76.488541,23.163124 80.141373,22.450878 
	C84.890083,25.165396 89.439621,27.601295 94.144028,30.329641 
	C97.889053,34.743065 101.479218,38.864044 105.212677,43.303459 
	C106.909782,47.426201 109.006859,51.106014 109.912666,55.058811 
	C112.356186,65.721840 111.068062,76.395767 108.814766,87.280975 
	C106.096573,90.374672 103.536324,93.177956 100.656342,96.119514 
	C76.173225,108.817543 52.069572,108.399353 27.864044,95.637833 
	C24.188980,91.208702 20.671288,87.066673 17.079582,82.527435 
	C16.614527,79.424301 16.223486,76.718376 15.885063,73.548653 
	C16.017244,68.720787 16.096809,64.356728 16.565842,59.971539 
	C17.634521,59.007710 18.665215,58.154350 18.931541,57.106682 
	C20.029835,52.786221 20.355751,48.193584 21.971487,44.097820 
	C24.553444,37.552750 27.935453,31.323288 30.979223,24.960394 
	C30.979223,24.960394 30.982117,25.008240 31.261213,24.962700 
	C32.025177,24.624973 32.510048,24.332788 32.994915,24.040600 
M84.230042,58.775589 
	C84.022827,59.150303 83.815613,59.525017 83.040169,60.267513 
	C76.604317,68.716110 79.469299,74.023567 87.345459,80.690735 
	C89.355278,80.795204 91.365089,80.899673 93.879715,81.043968 
	C94.209000,80.978645 94.538292,80.913330 95.597649,80.946922 
	C96.447411,80.633499 97.297180,80.320076 98.824913,79.913521 
	C103.675995,76.998863 107.235497,73.374199 105.915756,66.441132 
	C104.831421,60.657661 100.719070,56.757622 94.204361,55.914818 
	C91.500534,56.308155 88.796700,56.701492 85.441330,57.141243 
	C85.202690,57.684494 84.964058,58.227749 84.763535,58.881939 
	C84.763535,58.881939 84.874252,58.843197 84.230042,58.775589 
M29.253614,59.240887 
	C29.261564,60.408562 29.269516,61.576237 28.781574,62.568546 
	C28.516222,62.779606 28.250868,62.990662 27.611488,62.916241 
	C27.611488,62.916241 27.153830,62.803028 27.124300,62.152840 
	C26.602451,62.012280 26.080601,61.871719 25.558750,61.731159 
	C25.650208,62.476528 25.741665,63.221901 25.918999,64.737358 
	C22.735434,69.885674 23.094162,72.099312 28.230478,77.768051 
	C34.186638,82.993828 37.791706,83.583504 42.809772,79.960434 
	C44.644016,78.345451 46.845055,76.994179 48.235592,75.060165 
	C51.065987,71.123543 50.975376,66.576263 48.717903,62.518223 
	C46.477936,58.491657 43.456253,54.925907 37.467243,57.043888 
	C37.467243,57.043888 37.070007,56.930744 36.676109,56.321552 
	C34.437366,57.118233 32.198627,57.914917 29.253614,59.240887 
z" data-index="4" style="opacity: 1; fill: rgb(234, 237, 240);"></path>
<path fill="#DD0AB8" opacity="1.000000" stroke="none" d="
M68.716766,25.004637 
	C60.888206,27.108356 53.707020,25.863810 47.064571,20.565434 
	C47.679901,12.692698 54.068550,7.816447 64.610077,7.491250 
	C70.617599,12.671888 71.167709,18.519838 68.716766,25.004637 
z" data-index="5" style="fill: rgb(221, 10, 184); opacity: 1;"></path>
<path fill="#B30391" opacity="1.000000" stroke="none" d="
M69.148987,25.074749 
	C71.167709,18.519838 70.617599,12.671888 65.013901,7.549623 
	C73.772629,7.299006 80.283234,11.661500 82.900070,19.984709 
	C81.843216,21.157021 80.892715,21.664637 79.942207,22.172256 
	C76.488541,23.163124 73.034874,24.153992 69.148987,25.074749 
z" data-index="6" style="opacity: 1; fill: rgb(179, 3, 145); stroke: rgb(179, 3, 145);"></path>
<path fill="#D0CBD7" opacity="1.000000" stroke="none" d="
M105.069374,42.985023 
	C101.479218,38.864044 97.889053,34.743065 94.141129,29.957085 
	C92.989731,26.899387 91.996078,24.506689 91.002434,22.113991 
	C94.884109,23.722160 98.765785,25.330328 102.908920,27.285488 
	C103.170380,27.632479 103.389336,27.719782 103.389336,27.719782 
	C103.389336,27.719782 103.733727,27.738710 103.895523,28.148756 
	C104.387703,28.693848 104.718094,28.828894 105.048477,28.963942 
	C105.048477,28.963942 104.997154,28.995287 104.934677,29.346001 
	C106.627296,33.711029 108.382408,37.725346 109.892967,42.045120 
	C108.122070,42.562061 106.595726,42.773544 105.069374,42.985023 
z" data-index="7" style="opacity: 1; fill: rgb(208, 203, 215);"></path>
<path fill="#B50692" opacity="1.000000" stroke="none" d="
M110.137512,41.739658 
	C108.382408,37.725346 106.627296,33.711029 104.955383,29.323696 
	C112.984245,33.116352 117.211533,40.119537 119.898361,49.075974 
	C119.961693,50.535831 119.964561,51.264091 119.616508,52.076668 
	C117.852013,54.107964 116.438438,56.054955 114.854126,57.650719 
	C113.168098,52.112877 111.652809,46.926266 110.137512,41.739658 
z" data-index="8" style="opacity: 1; fill: rgb(181, 6, 146);"></path>
<path fill="#E00AC1" opacity="1.000000" stroke="none" d="
M11.742897,46.032944 
	C12.174620,44.804241 12.606341,43.575542 13.641506,42.109772 
	C16.787033,39.590935 19.329117,37.309162 21.925501,35.407028 
	C20.313904,41.172729 18.648008,46.558796 16.741312,52.023991 
	C16.392237,52.396439 16.283964,52.689758 16.151730,53.405758 
	C16.042400,55.225800 15.957030,56.623158 15.642392,58.279434 
	C15.257897,59.683189 15.102672,60.828026 14.637302,61.928505 
	C13.881472,61.252346 13.435785,60.620552 12.989050,59.529343 
	C13.122716,55.456715 13.352159,51.842487 13.313663,48.231117 
	C13.305795,47.492897 12.292647,46.765388 11.742897,46.032944 
z" data-index="9" style="fill: rgb(224, 10, 193); stroke: rgb(224, 10, 193);"></path>
<path fill="#C319A5" opacity="1.000000" stroke="none" d="
M11.509946,46.245808 
	C12.292647,46.765388 13.305795,47.492897 13.313663,48.231117 
	C13.352159,51.842487 13.122716,55.456715 12.621476,59.623028 
	C11.819338,62.126579 11.383723,64.077034 10.553826,66.021553 
	C9.108010,66.011559 8.056478,66.007500 6.999118,65.747330 
	C6.984850,65.320717 6.976407,65.150223 6.912150,64.593582 
	C7.046426,61.195465 7.236978,58.183529 7.426429,55.171524 
	C7.538890,53.383560 7.649616,51.595486 7.761123,49.807461 
	C8.933081,48.691200 10.105038,47.574936 11.509946,46.245808 
z" data-index="10" style="fill: rgb(195, 25, 165); stroke: rgb(195, 25, 165);"></path>
<path fill="#F1F2F5" opacity="1.000000" stroke="none" d="
M16.982113,51.944862 
	C18.648008,46.558796 20.313904,41.172729 22.098269,35.092815 
	C23.528200,32.122204 24.839666,29.845438 26.151131,27.568674 
	C27.549149,26.711206 28.947168,25.853739 30.662205,24.978333 
	C27.935453,31.323288 24.553444,37.552750 21.971487,44.097820 
	C20.355751,48.193584 20.029835,52.786221 18.931541,57.106682 
	C18.665215,58.154350 17.634521,59.007710 16.505135,59.643970 
	C15.993862,58.898521 15.932762,58.459522 15.871661,58.020519 
	C15.957030,56.623158 16.042400,55.225800 16.335369,53.274696 
	C16.767643,52.506565 16.914024,52.247868 16.982113,51.944862 
z" data-index="11" style="fill: rgb(241, 242, 245); stroke: rgb(241, 242, 245);"></path>
<path fill="#9F0D83" opacity="1.000000" stroke="none" d="
M119.967430,51.992355 
	C119.964561,51.264091 119.961693,50.535831 119.960930,49.443428 
	C120.300766,49.151123 120.572891,49.325409 120.893379,49.820992 
	C121.028214,61.399334 121.049072,72.758827 121.048508,84.535904 
	C121.027077,84.953484 120.650688,85.141762 120.159470,84.899391 
	C119.230904,79.956139 118.698586,75.261490 118.389671,70.552185 
	C118.184692,67.427422 116.991066,63.012089 118.544754,61.410984 
	C121.729210,58.129356 120.854362,55.312542 119.967430,51.992355 
z" data-index="12" style="opacity: 1; fill: rgb(159, 13, 131); stroke: rgb(159, 13, 131);"></path>
<path fill="#CFC6D5" opacity="1.000000" stroke="none" d="
M90.671837,21.941036 
	C91.996078,24.506689 92.989731,26.899387 93.986267,29.664639 
	C89.439621,27.601295 84.890083,25.165396 80.141373,22.450876 
	C80.892715,21.664637 81.843216,21.157021 82.933670,20.352448 
	C85.496155,20.626356 87.918701,21.197218 90.671837,21.941036 
z" data-index="13" style="opacity: 1; fill: rgb(207, 198, 213);"></path>
<path fill="#F30DD6" opacity="1.000000" stroke="none" d="
M25.788017,27.650715 
	C24.839666,29.845438 23.528200,32.122204 22.043968,34.713181 
	C19.329117,37.309162 16.787033,39.590935 13.873057,41.879738 
	C17.475746,37.168762 21.450325,32.450760 25.788017,27.650715 
z" data-index="14" style="fill: rgb(243, 13, 214); stroke: rgb(243, 13, 214);"></path>
<path fill="#E606B8" opacity="1.000000" stroke="none" d="
M7.492693,49.864700 
	C7.649616,51.595486 7.538890,53.383560 7.426429,55.171524 
	C7.236978,58.183529 7.046426,61.195465 6.548044,64.600677 
	C5.506676,65.007011 4.773601,65.020096 4.026129,64.651779 
	C3.999101,63.507725 3.986471,62.745075 3.973840,61.982430 
	C3.979089,61.237026 3.984337,60.491619 4.258424,59.116413 
	C5.008186,55.957920 5.489110,53.429234 5.970035,50.900543 
	C6.388112,50.574341 6.806188,50.248138 7.492693,49.864700 
z" data-index="15" style="fill: rgb(230, 6, 184); stroke: rgb(230, 6, 184);"></path>
<path fill="#F006CA" opacity="1.000000" stroke="none" d="
M5.674850,50.911472 
	C5.489110,53.429234 5.008186,55.957920 4.258508,58.743698 
	C3.984735,56.871326 3.979717,54.741871 3.962134,52.214142 
	C4.426269,51.518047 4.902967,51.220222 5.674850,50.911472 
z" data-index="16" style="fill: rgb(240, 6, 202); stroke: rgb(240, 6, 202);"></path>
<path fill="#F1F2F5" opacity="1.000000" stroke="none" d="
M32.695755,24.010788 
	C32.510048,24.332788 32.025177,24.624973 31.245331,24.944607 
	C31.432434,24.641693 31.914515,24.311335 32.695755,24.010788 
z" data-index="17" style="fill: rgb(241, 242, 245); stroke: rgb(241, 242, 245);"></path>
<path fill="#B50692" opacity="1.000000" stroke="none" d="
M105.084702,28.652710 
	C104.718094,28.828894 104.387703,28.693848 104.028694,28.258329 
	C104.373688,28.085730 104.747299,28.213604 105.084702,28.652710 
z" data-index="18" style="opacity: 1; fill: rgb(181, 6, 146); stroke: rgb(181, 6, 146);"></path>
<path fill="#CFC6D5" opacity="1.000000" stroke="none" d="
M103.455559,27.635975 
	C103.389336,27.719782 103.170380,27.632479 103.169556,27.564598 
	C103.168724,27.496716 103.521782,27.552168 103.455559,27.635975 
z" data-index="19" style="fill: rgb(207, 198, 213); stroke: rgb(207, 198, 213);"></path>
<path fill="#C4AECA" opacity="1.000000" stroke="none" d="
M28.021412,95.924942 
	C52.069572,108.399353 76.173225,108.817543 100.958115,96.284225 
	C103.131439,97.905807 104.683266,99.500954 106.152802,101.449211 
	C105.772285,102.932365 105.474068,104.062401 105.175842,105.192436 
	C105.175842,105.192436 105.074730,105.163208 104.754135,105.217514 
	C104.293861,105.705353 104.154175,106.138893 104.014488,106.572433 
	C98.058655,108.358345 92.168564,111.359802 86.133797,111.686172 
	C72.015144,112.449738 57.816647,112.240097 43.672756,111.763397 
	C38.669674,111.594780 33.731266,109.507103 28.328529,107.872299 
	C27.572098,107.310455 27.250467,107.171875 26.928837,107.033287 
	C26.928837,107.033287 26.998375,107.020195 26.985661,106.722122 
	C26.372095,105.277466 25.771242,104.130882 25.515400,102.901909 
	C26.580744,100.521332 27.301079,98.223137 28.021412,95.924942 
z" data-index="20" style="opacity: 1; fill: rgb(196, 174, 202);"></path>
<path fill="#B0068A" opacity="1.000000" stroke="none" d="
M119.616508,52.076668 
	C120.854362,55.312542 121.729210,58.129356 118.544754,61.410984 
	C116.991066,63.012089 118.184692,67.427422 118.389671,70.552185 
	C118.698586,75.261490 119.230904,79.956139 119.949249,84.890472 
	C120.115356,85.559906 120.000481,85.995888 119.388512,86.748535 
	C117.671867,88.215164 116.347023,89.273697 115.253616,90.533157 
	C112.553352,93.643456 109.959190,96.845856 107.320007,99.661911 
	C109.153786,94.529518 110.989952,89.746445 112.987228,84.598686 
	C113.773849,75.489983 114.399361,66.745964 115.024864,58.001945 
	C116.438438,56.054955 117.852013,54.107964 119.616508,52.076668 
z" data-index="21" style="opacity: 1; fill: rgb(176, 6, 138);"></path>
<path fill="#C20CAA" opacity="1.000000" stroke="none" d="
M25.170391,102.984291 
	C25.771242,104.130882 26.372095,105.277466 26.966331,106.751755 
	C22.993595,103.356148 19.027473,99.632835 15.014709,95.133461 
	C14.643782,91.904625 14.319494,89.451859 13.995900,86.626945 
	C13.664729,84.835724 13.332866,83.416641 13.001598,81.543587 
	C13.001520,78.059540 13.000844,75.029465 13.313272,71.995872 
	C14.042209,71.978172 14.458041,71.963997 14.917761,72.241058 
	C15.251915,73.025688 15.542181,73.519066 15.832447,74.012451 
	C16.223486,76.718376 16.614527,79.424301 17.028063,82.932983 
	C19.757168,90.151917 22.463779,96.568108 25.170391,102.984291 
z" data-index="22" style="fill: rgb(194, 12, 170); stroke: rgb(194, 12, 170);"></path>
<path fill="#B61A9D" opacity="1.000000" stroke="none" d="
M13.000168,71.999390 
	C13.000844,75.029465 13.001520,78.059540 12.615078,81.559769 
	C11.467113,83.405464 10.706264,84.780991 9.945414,86.156525 
	C9.139979,85.859779 8.334546,85.563026 7.268425,84.856361 
	C7.007738,84.446442 7.024680,84.015945 7.296885,83.728065 
	C7.376863,79.962006 7.184635,76.483818 6.997602,72.568298 
	C7.003513,70.088463 7.004228,68.045952 7.004944,66.003448 
	C8.056478,66.007500 9.108010,66.011559 10.563330,66.407303 
	C11.644800,68.532448 12.322484,70.265923 13.000168,71.999390 
z" data-index="23" style="fill: rgb(182, 26, 157); stroke: rgb(182, 26, 157);"></path>
<path fill="#C1059F" opacity="1.000000" stroke="none" d="
M107.322372,100.011230 
	C109.959190,96.845856 112.553352,93.643456 115.253616,90.533157 
	C116.347023,89.273697 117.671867,88.215164 119.231781,87.048691 
	C116.815285,94.520218 112.580276,100.907028 105.516800,105.316528 
	C105.474068,104.062401 105.772285,102.932365 106.372757,101.312302 
	C106.890793,100.551918 107.106583,100.281578 107.322372,100.011230 
z" data-index="24" style="opacity: 1; fill: rgb(193, 5, 159);"></path>
<path fill="#E606B8" opacity="1.000000" stroke="none" d="
M6.992406,73.005646 
	C7.184635,76.483818 7.376863,79.962006 7.010024,83.723854 
	C6.260830,84.023300 6.070704,84.039078 5.880578,84.054855 
	C5.548107,84.069916 5.272140,83.952347 4.988950,83.479630 
	C4.614658,80.124420 4.304092,76.991714 4.374165,73.427620 
	C5.500670,72.999367 6.246538,73.002502 6.992406,73.005646 
z" data-index="25" style="fill: rgb(230, 6, 184); stroke: rgb(230, 6, 184);"></path>
<path fill="#B922AA" opacity="1.000000" stroke="none" d="
M13.995208,86.999084 
	C14.319494,89.451859 14.643782,91.904625 14.946740,94.804123 
	C13.577829,92.767052 12.230247,90.283241 11.224312,87.418724 
	C12.375709,87.025032 13.185458,87.012062 13.995208,86.999084 
z" data-index="26" style="fill: rgb(185, 34, 170); stroke: rgb(185, 34, 170);"></path>
<path fill="#BB20A8" opacity="1.000000" stroke="none" d="
M13.995900,86.626945 
	C13.185458,87.012062 12.375709,87.025032 11.161367,87.060226 
	C10.445019,87.026596 10.214895,86.858788 10.005911,86.367783 
	C10.706264,84.780991 11.467113,83.405464 12.614481,82.013748 
	C13.332866,83.416641 13.664729,84.835724 13.995900,86.626945 
z" data-index="27" style="fill: rgb(187, 32, 168); stroke: rgb(187, 32, 168);"></path>
<path fill="#D808A8" opacity="1.000000" stroke="none" d="
M5.995734,84.280029 
	C6.070704,84.039078 6.260830,84.023300 6.737818,84.011734 
	C7.024680,84.015945 7.007738,84.446442 7.001868,84.661392 
	C6.700963,84.752632 6.405926,84.628922 5.995734,84.280029 
z" data-index="28" style="fill: rgb(216, 8, 168); stroke: rgb(216, 8, 168);"></path>
<path fill="#C1059F" opacity="1.000000" stroke="none" d="
M104.369431,106.432648 
	C104.154175,106.138893 104.293861,105.705353 104.766983,105.166473 
	C104.975075,105.471718 104.849724,105.882294 104.369431,106.432648 
z" data-index="29" style="fill: rgb(193, 5, 159); stroke: rgb(193, 5, 159);"></path>
<path fill="#C20CAA" opacity="1.000000" stroke="none" d="
M26.960430,107.334961 
	C27.250467,107.171875 27.572098,107.310455 28.013666,107.696701 
	C27.753078,107.841774 27.372553,107.739204 26.960430,107.334961 
z" data-index="30" style="fill: rgb(194, 12, 170); stroke: rgb(194, 12, 170);"></path>
<path fill="#D808A8" opacity="1.000000" stroke="none" d="
M6.997602,72.568306 
	C6.246538,73.002502 5.500670,72.999367 4.382322,72.994476 
	C4.004550,72.552940 3.999256,72.113159 3.999216,70.915375 
	C4.016488,68.449310 4.028507,66.741249 4.040525,65.033180 
	C4.773601,65.020096 5.506676,65.007011 6.603858,64.986832 
	C6.976407,65.150223 6.984850,65.320717 6.999118,65.747330 
	C7.004228,68.045952 7.003513,70.088463 6.997602,72.568306 
z" data-index="31" style="fill: rgb(216, 8, 168); stroke: rgb(216, 8, 168);"></path>
<path fill="#F006CA" opacity="1.000000" stroke="none" d="
M4.026129,64.651779 
	C4.028507,66.741249 4.016488,68.449310 3.987420,70.585526 
	C0.493113,68.345657 1.721108,65.279930 3.599233,62.086670 
	C3.986471,62.745075 3.999101,63.507725 4.026129,64.651779 
z" data-index="32" style="fill: rgb(240, 6, 202); stroke: rgb(240, 6, 202);"></path>
<path fill="#D0D5DC" opacity="1.000000" stroke="none" d="
M114.854126,57.650719 
	C114.399361,66.745964 113.773849,75.489983 112.676193,84.648170 
	C111.126923,85.705086 110.049812,86.347824 108.972702,86.990570 
	C111.068062,76.395767 112.356186,65.721840 109.912666,55.058811 
	C109.006859,51.106014 106.909782,47.426201 105.212677,43.303459 
	C106.595726,42.773544 108.122070,42.562061 109.892975,42.045120 
	C111.652809,46.926266 113.168098,52.112877 114.854126,57.650719 
z" data-index="33" style="opacity: 1; fill: rgb(208, 213, 220);"></path>
<path fill="#2FC4EA" opacity="1.000000" stroke="none" d="
M37.866928,57.147232 
	C43.456253,54.925907 46.477936,58.491657 48.717903,62.518223 
	C50.975376,66.576263 51.065987,71.123543 48.235592,75.060165 
	C46.845055,76.994179 44.644016,78.345451 42.144135,79.930771 
	C40.651535,78.320518 39.824574,76.739914 39.287815,75.003273 
	C40.761753,73.651070 41.945484,72.454895 43.417007,71.037064 
	C47.231056,65.425751 46.747032,63.231216 41.334763,59.721638 
	C40.129261,58.939930 39.020325,58.009300 37.866928,57.147232 
z" data-index="34" style="fill: rgb(47, 196, 234); stroke: rgb(47, 196, 234);"></path>
<path fill="#22B5D3" opacity="1.000000" stroke="none" d="
M86.983467,80.071739 
	C79.469299,74.023567 76.604317,68.716110 83.611526,60.011070 
	C84.413345,59.450817 84.643799,59.147003 84.874252,58.843193 
	C84.874252,58.843197 84.763535,58.881939 85.039429,58.766724 
	C85.574501,58.132618 85.833687,57.613728 86.092873,57.094833 
	C88.796700,56.701492 91.500534,56.308155 94.611267,56.359360 
	C95.015907,57.695881 95.013641,58.587860 94.666649,59.543144 
	C93.857803,59.580753 93.393677,59.555054 92.825371,59.444305 
	C92.434929,59.273289 92.207878,59.360847 91.661331,59.731232 
	C83.391281,61.816998 80.552513,67.793678 85.253609,73.348541 
	C86.715347,75.075737 89.720665,75.496590 92.060631,76.642975 
	C92.101929,76.770470 92.052322,77.033867 91.677193,77.027077 
	C89.862534,78.037437 88.422997,79.054588 86.983467,80.071739 
z" data-index="35" style="opacity: 1; fill: rgb(34, 181, 211);"></path>
<path fill="#27D9F7" opacity="1.000000" stroke="none" d="
M92.052322,77.033867 
	C92.052322,77.033867 92.101929,76.770470 92.408707,76.522453 
	C93.791115,75.846619 94.866753,75.418800 95.974892,74.994659 
	C96.007401,74.998344 96.015388,74.933434 96.289627,74.895737 
	C96.988388,74.558372 97.412903,74.258713 97.909752,73.969299 
	C97.982079,73.979553 97.996620,73.834183 98.211212,73.778114 
	C98.693924,73.548042 98.843040,73.301910 99.111099,72.870102 
	C99.617180,72.322899 99.885300,71.889236 100.422821,71.231415 
	C101.268288,69.979408 101.844353,68.951576 102.721527,67.901031 
	C103.979599,67.603905 104.936562,67.329491 105.893517,67.055069 
	C107.235497,73.374199 103.675995,76.998863 98.132172,79.935509 
	C96.582138,80.254333 95.724861,80.551170 94.867577,80.848007 
	C94.538292,80.913330 94.209000,80.978645 93.391724,80.744431 
	C92.619926,79.307884 92.336128,78.170876 92.052322,77.033867 
z" data-index="36" style="opacity: 1; fill: rgb(39, 217, 247); stroke: rgb(39, 217, 247);"></path>
<path fill="#3B3263" opacity="1.000000" stroke="none" d="
M27.985514,63.201721 
	C28.250868,62.990662 28.516222,62.779606 29.196369,62.752335 
	C30.078056,62.620403 30.544950,62.304684 31.225998,62.179214 
	C31.504454,64.501945 32.443577,64.415833 34.385651,64.216545 
	C38.084164,63.837017 42.721607,62.718166 42.620235,69.017075 
	C35.387016,73.559074 34.501049,73.325432 30.410088,66.267914 
	C30.057991,65.660484 29.068708,65.422409 28.341698,64.704163 
	C28.200491,63.997616 28.093002,63.599667 27.985514,63.201721 
z" data-index="37" style="fill: rgb(59, 50, 99); stroke: rgb(59, 50, 99);"></path>
<path fill="#4C2F5B" opacity="1.000000" stroke="none" d="
M42.977333,68.956757 
	C42.721607,62.718166 38.084164,63.837017 34.385651,64.216545 
	C32.443577,64.415833 31.504454,64.501945 31.167698,61.922470 
	C30.906303,61.300415 30.917358,61.125359 31.254194,60.818336 
	C33.409985,59.434502 35.239998,58.182621 37.070007,56.930744 
	C37.070007,56.930744 37.467243,57.043888 37.667084,57.095558 
	C39.020325,58.009300 40.129261,58.939930 41.334763,59.721638 
	C46.747032,63.231216 47.231056,65.425751 43.379227,70.654465 
	C43.028217,69.981277 43.002773,69.469017 42.977333,68.956757 
z" data-index="38" style="fill: rgb(76, 47, 91); stroke: rgb(76, 47, 91);"></path>
<path fill="#BFB8C4" opacity="1.000000" stroke="none" d="
M25.515400,102.901909 
	C22.463779,96.568108 19.757168,90.151917 17.102077,83.330185 
	C20.671288,87.066673 24.188980,91.208702 27.864044,95.637833 
	C27.301079,98.223137 26.580744,100.521332 25.515400,102.901909 
z" data-index="39" style="fill: rgb(191, 184, 196); stroke: rgb(191, 184, 196);"></path>
<path fill="#C5B8CF" opacity="1.000000" stroke="none" d="
M108.814766,87.280975 
	C110.049812,86.347824 111.126923,85.705086 112.515076,85.012856 
	C110.989952,89.746445 109.153786,94.529518 107.320000,99.661911 
	C107.106583,100.281578 106.890793,100.551918 106.455048,100.959183 
	C104.683266,99.500954 103.131439,97.905807 101.277847,96.145950 
	C103.536324,93.177956 106.096573,90.374672 108.814766,87.280975 
z" data-index="40" style="opacity: 1; fill: rgb(197, 184, 207);"></path>
<path fill="#2AAFD9" opacity="1.000000" stroke="none" d="
M38.997612,75.159309 
	C39.824574,76.739914 40.651535,78.320518 41.801449,79.970886 
	C37.791706,83.583504 34.186638,82.993828 28.140038,77.127640 
	C29.072716,76.339752 30.092291,76.109863 31.119850,76.065689 
	C32.401142,76.010620 33.689014,76.108612 35.302063,76.015549 
	C36.752586,75.646820 37.875099,75.403069 38.997612,75.159309 
z" data-index="41" style="fill: rgb(42, 175, 217); stroke: rgb(42, 175, 217);"></path>
<path fill="#229EC3" opacity="1.000000" stroke="none" d="
M34.974049,76.140518 
	C33.689014,76.108612 32.401142,76.010620 31.119850,76.065689 
	C30.092291,76.109863 29.072716,76.339752 27.989647,76.816071 
	C23.094162,72.099312 22.735434,69.885674 26.030077,64.089233 
	C26.478712,63.228416 26.816271,63.015720 27.153830,62.803028 
	C27.153830,62.803028 27.611488,62.916241 27.798500,63.058983 
	C28.093002,63.599667 28.200491,63.997616 28.217136,65.044067 
	C27.252001,70.496407 29.045614,73.233009 34.974049,76.140518 
z" data-index="42" style="fill: rgb(34, 158, 195); stroke: rgb(34, 158, 195);"></path>
<path fill="#15BCD8" opacity="1.000000" stroke="none" d="
M105.904633,66.748108 
	C104.936562,67.329491 103.979599,67.603905 102.656235,67.519058 
	C101.776047,62.787418 99.643646,59.949036 95.011375,59.479836 
	C95.013641,58.587860 95.015907,57.695881 95.033905,56.469948 
	C100.719070,56.757622 104.831421,60.657661 105.904633,66.748108 
z" data-index="43" style="opacity: 1; fill: rgb(21, 188, 216); stroke: rgb(21, 188, 216);"></path>
<path fill="#2FBBE0" opacity="1.000000" stroke="none" d="
M91.677193,77.027077 
	C92.336128,78.170876 92.619926,79.307884 93.139313,80.724518 
	C91.365089,80.899673 89.355278,80.795204 87.164459,80.381241 
	C88.422997,79.054588 89.862534,78.037437 91.677193,77.027077 
z" data-index="44" style="fill: rgb(47, 187, 224); stroke: rgb(47, 187, 224);"></path>
<path fill="#20B5DC" opacity="1.000000" stroke="none" d="
M36.873058,56.626148 
	C35.239998,58.182621 33.409985,59.434502 31.016960,60.608574 
	C30.289261,59.924377 30.124571,59.317989 29.959883,58.711601 
	C32.198627,57.914917 34.437366,57.118233 36.873058,56.626148 
z" data-index="45" style="fill: rgb(32, 181, 220); stroke: rgb(32, 181, 220);"></path>
<path fill="#BB20A8" opacity="1.000000" stroke="none" d="
M15.885063,73.548653 
	C15.542181,73.519066 15.251915,73.025688 14.950669,71.792770 
	C14.942276,68.026443 14.944861,64.999657 14.947446,61.972866 
	C15.102672,60.828026 15.257897,59.683189 15.642392,58.279434 
	C15.932762,58.459522 15.993862,58.898521 16.115669,59.665092 
	C16.096809,64.356728 16.017244,68.720787 15.885063,73.548653 
z" data-index="46" style="fill: rgb(187, 32, 168); stroke: rgb(187, 32, 168);"></path>
<path fill="#269FC7" opacity="1.000000" stroke="none" d="
M29.606749,58.976242 
	C30.124571,59.317989 30.289261,59.924377 30.691181,60.740532 
	C30.917358,61.125359 30.906303,61.300415 30.953545,61.732220 
	C30.544950,62.304684 30.078056,62.620403 29.444313,62.840019 
	C29.269516,61.576237 29.261564,60.408562 29.606749,58.976242 
z" data-index="47" style="fill: rgb(38, 159, 199); stroke: rgb(38, 159, 199);"></path>
<path fill="#68466B" opacity="1.000000" stroke="none" d="
M27.139065,62.477936 
	C26.816271,63.015720 26.478712,63.228416 25.987139,63.704189 
	C25.741665,63.221901 25.650208,62.476528 25.558750,61.731159 
	C26.080601,61.871719 26.602451,62.012280 27.139065,62.477936 
z" data-index="48" style="fill: rgb(104, 70, 107); stroke: rgb(104, 70, 107);"></path>
<path fill="#2FBBE0" opacity="1.000000" stroke="none" d="
M95.232613,80.897461 
	C95.724861,80.551170 96.582138,80.254333 97.793182,79.982071 
	C97.297180,80.320076 96.447411,80.633499 95.232613,80.897461 
z" data-index="49" style="fill: rgb(47, 187, 224); stroke: rgb(47, 187, 224);"></path>
<path fill="#23A7C7" opacity="1.000000" stroke="none" d="
M85.767105,57.118038 
	C85.833687,57.613728 85.574501,58.132618 85.020370,58.711258 
	C84.964058,58.227749 85.202690,57.684494 85.767105,57.118038 
z" data-index="50" style="fill: rgb(35, 167, 199);"></path>
<path fill="#23A7C7" opacity="1.000000" stroke="none" d="
M84.552139,58.809391 
	C84.643799,59.147003 84.413345,59.450817 83.895645,59.827179 
	C83.815613,59.525017 84.022827,59.150303 84.552139,58.809391 
z" data-index="51" style="fill: rgb(35, 167, 199); opacity: 1;"></path>
<path fill="#D50FB7" opacity="1.000000" stroke="none" d="
M14.637302,61.928505 
	C14.944861,64.999657 14.942276,68.026443 14.906782,71.501526 
	C14.458041,71.963997 14.042209,71.978172 13.313272,71.995872 
	C12.322484,70.265923 11.644800,68.532448 10.957612,66.413239 
	C11.383723,64.077034 11.819338,62.126579 12.622526,60.082439 
	C13.435785,60.620552 13.881472,61.252346 14.637302,61.928505 
z" data-index="52" style="fill: rgb(213, 15, 183); stroke: rgb(213, 15, 183);"></path>
<path fill="#EAEDF0" opacity="1.000000" stroke="none" d="
M16.741312,52.023991 
	C16.914024,52.247868 16.767643,52.506565 16.359329,52.852016 
	C16.283964,52.689758 16.392237,52.396439 16.741312,52.023991 
z" data-index="53" style="fill: rgb(234, 237, 240); stroke: rgb(234, 237, 240);"></path>
<path fill="#4F234F" opacity="1.000000" stroke="none" d="
M35.302063,76.015549 
	C29.045614,73.233009 27.252001,70.496407 28.250854,65.352661 
	C29.068708,65.422409 30.057991,65.660484 30.410088,66.267914 
	C34.501049,73.325432 35.387016,73.559074 42.620239,69.017075 
	C43.002773,69.469017 43.028217,69.981277 43.091438,70.876129 
	C41.945484,72.454895 40.761753,73.651070 39.287819,75.003273 
	C37.875099,75.403069 36.752586,75.646820 35.302063,76.015549 
z" data-index="54" style="fill: rgb(79, 35, 79); stroke: rgb(79, 35, 79);"></path>
<path fill="#572A5B" opacity="1.000000" stroke="none" d="
M94.666649,59.543144 
	C99.643646,59.949036 101.776047,62.787418 102.355133,67.541763 
	C101.844353,68.951576 101.268288,69.979408 100.385361,70.782234 
	C100.059082,70.062721 100.005302,69.566803 100.025658,69.073952 
	C100.182449,65.277863 98.476357,61.605118 94.798996,62.348278 
	C91.277153,63.060013 88.226486,66.342209 85.179939,68.760735 
	C84.905029,68.978973 85.865593,71.881187 86.787125,72.270172 
	C89.702293,73.500679 92.871460,74.129463 95.942383,74.990982 
	C94.866753,75.418800 93.791115,75.846619 92.367401,76.394958 
	C89.720665,75.496590 86.715347,75.075737 85.253609,73.348541 
	C80.552513,67.793678 83.391281,61.816998 91.889725,59.766190 
	C92.496819,59.691856 92.929558,59.529350 92.929558,59.529350 
	C93.393677,59.555054 93.857803,59.580753 94.666649,59.543144 
z" data-index="55" style="opacity: 1; fill: rgb(87, 42, 91);"></path>
<path fill="#23A7C7" opacity="1.000000" stroke="none" d="
M92.825371,59.444305 
	C92.929558,59.529350 92.496819,59.691856 92.268433,59.656898 
	C92.207878,59.360847 92.434929,59.273289 92.825371,59.444305 
z" data-index="56" style="fill: rgb(35, 167, 199); stroke: rgb(35, 167, 199);"></path>
<path fill="#453160" opacity="1.000000" stroke="none" d="
M95.974892,74.994659 
	C92.871460,74.129463 89.702293,73.500679 86.787125,72.270172 
	C85.865593,71.881187 84.905029,68.978973 85.179939,68.760735 
	C88.226486,66.342209 91.277153,63.060013 94.798996,62.348278 
	C98.476357,61.605118 100.182449,65.277863 100.025658,69.073952 
	C100.005302,69.566803 100.059082,70.062721 100.115967,71.006393 
	C99.885300,71.889236 99.617180,72.322899 98.934784,72.978798 
	C98.296974,73.371620 98.122345,73.582672 97.996620,73.834183 
	C97.996620,73.834183 97.982079,73.979553 97.641983,74.011505 
	C96.873062,74.340111 96.444221,74.636772 96.015388,74.933434 
	C96.015388,74.933434 96.007401,74.998344 95.974892,74.994659 
z" data-index="57" style="opacity: 1; fill: rgb(69, 49, 96);"></path>
<path fill="#572A5B" opacity="1.000000" stroke="none" d="
M96.289627,74.895737 
	C96.444221,74.636772 96.873062,74.340111 97.569656,74.001251 
	C97.412903,74.258713 96.988388,74.558372 96.289627,74.895737 
z" data-index="58" style="fill: rgb(87, 42, 91); stroke: rgb(87, 42, 91);"></path>
<path fill="#572A5B" opacity="1.000000" stroke="none" d="
M98.211212,73.778114 
	C98.122345,73.582672 98.296974,73.371620 98.696831,73.092331 
	C98.843040,73.301910 98.693924,73.548042 98.211212,73.778114 
z" data-index="59" style="fill: rgb(87, 42, 91); stroke: rgb(87, 42, 91);"></path>
</svg>